<svg enable-background="new 0 0 264.54 82.34" viewBox="0 0 264.54 82.34" xmlns="http://www.w3.org/2000/svg"><path d="m0 0h264.54v82.34h-264.54z" fill="#00f"/><path d="m222.62 66.63c-11.58 0-21-9.42-21-21.01 0-11.78 8.95-21 20.37-21s20.37 9.23 20.37 21v4.16h-31.73l.13.35c1.86 4.89 6.63 8.18 11.86 8.18 3.46 0 6.68-1.35 9.07-3.82l7.47 4.08c-4.01 5.13-10.02 8.06-16.54 8.06zm-.63-33.69c-5.2 0-9.64 3.21-11.33 8.18l-.11.34h22.88l-.11-.34c-1.69-4.97-6.13-8.18-11.33-8.18zm-46.47 33.69c-11.58 0-21.01-9.42-21.01-21.01 0-11.78 8.95-21 20.38-21 11.42 0 20.37 9.23 20.37 21v4.16h-31.73l.13.35c1.87 4.89 6.63 8.18 11.86 8.18 3.46 0 6.68-1.35 9.07-3.82l7.47 4.08c-4.01 5.13-10.02 8.06-16.54 8.06zm-.63-33.69c-5.2 0-9.64 3.21-11.33 8.18l-.11.34h22.88l-.11-.34c-1.69-4.97-6.14-8.18-11.33-8.18zm-82.59 33.69c-11.58 0-21-9.42-21-21.01 0-11.58 9.42-21 21-21 7.07 0 13.59 3.5 17.5 9.39l-7.55 3.75c-2.42-3.07-6.03-4.82-9.95-4.82-6.99 0-12.68 5.69-12.68 12.68s5.69 12.68 12.68 12.68c3.91 0 7.53-1.75 9.95-4.82l7.55 3.75c-3.91 5.89-10.43 9.4-17.5 9.4zm-49.12 0c-11.58 0-21-9.42-21-21.01 0-11.58 9.42-21 21-21 4.43 0 8.68 1.38 12.28 3.98l.4.29v-2.72h8.32v38.91h-8.32v-2.72l-.4.29c-3.6 2.6-7.84 3.98-12.28 3.98zm0-33.69c-6.99 0-12.68 5.69-12.68 12.68s5.69 12.68 12.68 12.68 12.68-5.69 12.68-12.68c.01-6.99-5.68-12.68-12.68-12.68zm98.68 32.14-12.47-14.98h-4.91v14.98h-8.32v-54.46h8.32v30.53h4.91l12.45-14.98h10.82l-16.18 19.46 16.19 19.46h-10.81z" fill="#fff"/></svg>