<?xml version="1.0" encoding="utf-8"?>
<!-- Generator: Adobe Illustrator 24.0.3, SVG Export Plug-In . SVG Version: 6.00 Build 0)  -->
<svg version="1.0" id="Layer_1" xmlns="http://www.w3.org/2000/svg" xmlns:xlink="http://www.w3.org/1999/xlink" x="0px" y="0px"
	 viewBox="0 0 264.54 82.34" style="enable-background:new 0 0 264.54 82.34;" xml:space="preserve">
<style type="text/css">
	.st0{fill:#0000FF;}
	.st1{fill:#FFFFFF;}
</style>
<rect class="st0" width="264.54" height="82.34"/>
<path class="st1" d="M222.62,66.63c-11.58,0-21-9.42-21-21.01c0-11.78,8.95-21,20.37-21s20.37,9.23,20.37,21v4.16h-31.73l0.13,0.35
	c1.86,4.89,6.63,8.18,11.86,8.18c3.46,0,6.68-1.35,9.07-3.82l7.47,4.08C235.15,63.7,229.14,66.63,222.62,66.63z M221.99,32.94
	c-5.2,0-9.64,3.21-11.33,8.18l-0.11,0.34h22.88l-0.11-0.34C231.63,36.15,227.19,32.94,221.99,32.94z M175.52,66.63
	c-11.58,0-21.01-9.42-21.01-21.01c0-11.78,8.95-21,20.38-21c11.42,0,20.37,9.23,20.37,21v4.16h-31.73l0.13,0.35
	c1.87,4.89,6.63,8.18,11.86,8.18c3.46,0,6.68-1.35,9.07-3.82l7.47,4.08C188.05,63.7,182.04,66.63,175.52,66.63z M174.89,32.94
	c-5.2,0-9.64,3.21-11.33,8.18l-0.11,0.34h22.88l-0.11-0.34C184.53,36.15,180.08,32.94,174.89,32.94z M92.3,66.63
	c-11.58,0-21-9.42-21-21.01c0-11.58,9.42-21,21-21c7.07,0,13.59,3.5,17.5,9.39l-7.55,3.75c-2.42-3.07-6.03-4.82-9.95-4.82
	c-6.99,0-12.68,5.69-12.68,12.68c0,6.99,5.69,12.68,12.68,12.68c3.91,0,7.53-1.75,9.95-4.82l7.55,3.75
	C105.89,63.12,99.37,66.63,92.3,66.63z M43.18,66.63c-11.58,0-21-9.42-21-21.01c0-11.58,9.42-21,21-21c4.43,0,8.68,1.38,12.28,3.98
	l0.4,0.29v-2.72h8.32v38.91h-8.32v-2.72l-0.4,0.29C51.86,65.25,47.62,66.63,43.18,66.63z M43.18,32.94
	c-6.99,0-12.68,5.69-12.68,12.68c0,6.99,5.69,12.68,12.68,12.68s12.68-5.69,12.68-12.68C55.87,38.63,50.18,32.94,43.18,32.94z
	 M141.86,65.08L129.39,50.1h-4.91v14.98h-8.32V10.62h8.32v30.53h4.91l12.45-14.98h10.82l-16.18,19.46l16.19,19.46H141.86z"/>
</svg>
